<svg width="36" height="36" viewBox="0 0 36 36" fill="none" xmlns="http://www.w3.org/2000/svg">
  <g clip-path="url(#clip0)">
    <path d="M17.2187 30.6566C6.73227 25.4318 5.20391 20.2273 4.78117 9.74019C-0.440328 16.3771 3.9863 23.5493 11.6857 28.8174C5.62282 25.6379 3.31079 22.0923 0.448286 16.0526C-0.829748 18.6398 -0.0972053 26.4795 14.3042 30.8592C7.66154 29.7959 5.09879 27.9299 1.13407 23.9391C1.80428 27.6484 3.34688 31.3966 15.4576 31.6852C10.6371 32.1828 8.17453 31.789 4.17333 29.9864C6.3242 33.6334 9.42694 34.4105 16.5329 32.4178C13.1957 33.8312 11.3782 34.1313 8.19448 34.1322C11.016 36.0073 12.7939 35.9299 16.2524 34.1322C15.4974 34.8257 15.0707 35.1533 14.3042 35.6441C15.7069 36.0649 17.5773 34.5998 17.5773 34.5998C17.6708 35.4883 17.9513 35.4883 17.9513 35.4883V29.4097L17.2187 30.6566Z" fill="#679A62"/>
    <path d="M18.7024 30.5833C29.2369 25.3612 30.7723 20.1595 31.1969 9.67789C36.4423 16.3113 31.9954 23.4797 24.2608 28.7451C30.3514 25.5672 32.674 22.0235 35.5497 15.987C36.8335 18.5728 36.0976 26.4083 21.6304 30.7858C28.3034 29.723 30.8779 27.8581 34.8607 23.8693C34.1874 27.5767 32.6378 31.323 20.4718 31.6114C25.3142 32.1087 27.7881 31.7151 31.8075 29.9134C29.6468 33.5586 26.5299 34.3352 19.3914 32.3436C22.7438 33.7563 24.5697 34.0561 27.768 34.0571C24.9336 35.9311 23.1477 35.8538 19.6733 34.0571C20.4317 34.7502 20.8603 35.0776 21.6304 35.5682C20.2212 35.9887 18.3424 34.5245 18.3424 34.5245C18.2484 35.4123 17.9666 35.4123 17.9666 35.4123V29.337L18.7024 30.5833Z" fill="#679A62"/>
    <path d="M11.4525 14.5561V25.7312C12.3588 26.7414 12.7664 27.018 13.4007 27.2431V14.5561C13.6852 13.9613 13.9036 13.736 14.632 13.6054H21.3652C22.0298 13.7403 22.217 13.9311 22.5652 14.5561V27.2431C23.5449 26.6855 24.0286 26.3492 24.4823 25.7312V14.5561C24.2864 12.8427 23.7846 12.1284 21.8172 11.7663H13.9151C12.266 12.1594 11.7716 12.8194 11.4525 14.5561Z" fill="#679A62"/>
    <path d="M7.23601 20.0691L7.25927 20.1206V15.7876C7.645 14.9344 7.98826 14.6418 8.77111 14.3693H10.1583C10.1481 13.7828 10.2446 13.4297 10.6414 12.7484C7.83926 12.5716 6.67875 12.9969 5.70068 15.1486C6.15489 17.6826 6.54785 18.5501 7.23601 20.0691Z" fill="#679A62"/>
    <path d="M28.5961 20.0692L28.5725 20.1206V15.7814C28.1806 14.927 27.832 14.6339 27.0367 14.361H25.6277C25.6381 13.7737 25.54 13.4201 25.137 12.7377C27.9833 12.5607 29.1622 12.9866 30.1556 15.1414C29.6943 17.6792 29.2951 18.5479 28.5961 20.0692Z" fill="#679A62"/>
    <path fill-rule="evenodd" clip-rule="evenodd" d="M17.967 8.39958C18.7944 8.39958 19.4944 7.7179 19.4944 6.84097C19.4944 5.96404 18.7944 5.28238 17.967 5.28238C17.1395 5.28238 16.4396 5.96404 16.4396 6.84097C16.4396 7.7179 17.1395 8.39958 17.967 8.39958ZM17.967 10.2699C19.8434 10.2699 21.3647 8.73469 21.3647 6.84097C21.3647 4.94724 19.8434 3.41206 17.967 3.41206C16.0904 3.41206 14.5692 4.94724 14.5692 6.84097C14.5692 8.73469 16.0904 10.2699 17.967 10.2699Z" fill="#679A62"/>
    <path fill-rule="evenodd" clip-rule="evenodd" d="M11.0935 9.67782C11.6005 9.67782 12.0443 9.25638 12.0443 8.69588C12.0443 8.13545 11.6005 7.71399 11.0935 7.71399C10.5865 7.71399 10.1428 8.13545 10.1428 8.69588C10.1428 9.25638 10.5865 9.67782 11.0935 9.67782ZM11.0935 11.2364C12.4794 11.2364 13.6029 10.099 13.6029 8.69588C13.6029 7.29282 12.4794 6.1554 11.0935 6.1554C9.70766 6.1554 8.58423 7.29282 8.58423 8.69588C8.58423 10.099 9.70766 11.2364 11.0935 11.2364Z" fill="#679A62"/>
    <path fill-rule="evenodd" clip-rule="evenodd" d="M24.8404 9.67782C25.3474 9.67782 25.7911 9.25638 25.7911 8.69588C25.7911 8.13545 25.3474 7.71399 24.8404 7.71399C24.3334 7.71399 23.8896 8.13545 23.8896 8.69588C23.8896 9.25638 24.3334 9.67782 24.8404 9.67782ZM24.8404 11.2364C26.2263 11.2364 27.3497 10.099 27.3497 8.69588C27.3497 7.29282 26.2263 6.1554 24.8404 6.1554C23.4545 6.1554 22.3311 7.29282 22.3311 8.69588C22.3311 10.099 23.4545 11.2364 24.8404 11.2364Z" fill="#679A62"/>
    <path d="M5.56079 2.88251V12.9666C6.13967 12.3597 6.50095 12.1113 7.22848 11.8756V4.11379C15.6403 0.715637 20.3563 0.634834 28.7682 4.11379V11.8756C29.5361 12.2233 29.8896 12.4561 30.3269 12.9666V2.88251C20.4143 -1.02896 15.0027 -0.849871 5.56079 2.88251Z" fill="#679A62"/>
  </g>
  <defs>
    <clipPath id="clip0">
      <rect width="36" height="36" fill="white"/>
    </clipPath>
  </defs>
</svg>
